<svg width="30" height="30" viewBox="0 0 30 30" fill="none" xmlns="http://www.w3.org/2000/svg">
<path d="M15.3049 5C15.9725 5.00368 17.6429 5.01983 19.4176 5.09091L20.0469 5.11835C21.8338 5.20295 23.6191 5.34748 24.5046 5.59438C25.6858 5.92619 26.6141 6.89438 26.9279 8.12165C27.4275 10.0705 27.49 13.8743 27.4977 14.7948L27.4989 14.9855V14.9989C27.4989 14.9989 27.4989 15.0035 27.4989 15.0124L27.4977 15.2031C27.49 16.1236 27.4275 19.9274 26.9279 21.8762C26.6097 23.108 25.6814 24.0763 24.5046 24.4035C23.6191 24.6504 21.8338 24.7949 20.0469 24.8795L19.4176 24.9069C17.6429 24.978 15.9725 24.9941 15.3049 24.9979L15.0119 24.9989H14.9989C14.9989 24.9989 14.9945 24.9989 14.9859 24.9989L14.6931 24.9979C13.2801 24.9901 7.37215 24.9263 5.49314 24.4035C4.312 24.0716 3.38365 23.1035 3.06984 21.8762C2.57025 19.9274 2.5078 16.1236 2.5 15.2031V14.7948C2.5078 13.8743 2.57025 10.0705 3.06984 8.12165C3.388 6.88983 4.31635 5.92165 5.49314 5.59438C7.37215 5.07154 13.2801 5.00777 14.6931 5H15.3049ZM12.4989 10.6239V19.3739L19.9989 14.9989L12.4989 10.6239Z" fill="#F80404"/>
</svg>
